<svg width="1024" height="1024" xmlns="http://www.w3.org/2000/svg" class="icon">
<path fill="#2196F3" d="m170.66667,554.66667m42.66666,0l213.33334,0q42.66666,0 42.66666,42.66666l0,213.33334q0,42.66666 -42.66666,42.66666l-213.33334,0q-42.66666,0 -42.66666,-42.66666l0,-213.33334q0,-42.66666 42.66666,-42.66666z"/>
<path fill="#2196F3" d="m554.66667,554.66667m42.66666,0l213.33334,0q42.66666,0 42.66666,42.66666l0,213.33334q0,42.66666 -42.66666,42.66666l-213.33334,0q-42.66666,0 -42.66666,-42.66666l0,-213.33334q0,-42.66666 42.66666,-42.66666z"/>
<path fill="#2196F3" d="m170.66667,170.66667m42.66666,0l213.33334,0q42.66666,0 42.66666,42.66666l0,213.33334q0,42.66666 -42.66666,42.66666l-213.33334,0q-42.66666,0 -42.66666,-42.66666l0,-213.33334q0,-42.66666 42.66666,-42.66666z"/>
<path transform="rotate(45 703.333251953125,320.3332824707031)" fill="#2196F3" d="m573,189.99999m37.23807,0l186.19041,0q37.23807,0 37.23807,37.23807l0,186.19041q0,37.23807 -37.23807,37.23807l-186.19041,0q-37.23807,0 -37.23807,-37.23807l0,-186.19041q0,-37.23807 37.23807,-37.23807z"/>
</svg>